<svg width="24" height="24" viewBox="0 0 24 24" fill="none" xmlns="http://www.w3.org/2000/svg">
<path fill-rule="evenodd" clip-rule="evenodd" d="M5 12.5H2L12 3.5L22 12.5H19V20.5H13V14.5H11V20.5H5V12.5ZM17 10.69L12 6.19L7 10.69V18.5H9V12.5H15V18.5H17V10.69Z" fill="#4982C1"/>
<path d="M2 12.5L1.66552 12.1284L0.697021 13H2V12.5ZM5 12.5H5.5V12H5V12.5ZM12 3.5L12.3345 3.12835L12 2.82732L11.6655 3.12835L12 3.5ZM22 12.5V13H23.303L22.3345 12.1284L22 12.5ZM19 12.5V12H18.5V12.5H19ZM19 20.5V21H19.5V20.5H19ZM13 20.5H12.5V21H13V20.5ZM13 14.5H13.5V14H13V14.5ZM11 14.5V14H10.5V14.5H11ZM11 20.5V21H11.5V20.5H11ZM5 20.5H4.5V21H5V20.5ZM12 6.19L12.3345 5.81835L12 5.51732L11.6655 5.81835L12 6.19ZM17 10.69H17.5V10.4673L17.3345 10.3184L17 10.69ZM7 10.69L6.66552 10.3184L6.5 10.4673V10.69H7ZM7 18.5H6.5V19H7V18.5ZM9 18.5V19H9.5V18.5H9ZM9 12.5V12H8.5V12.5H9ZM15 12.5H15.5V12H15V12.5ZM15 18.5H14.5V19H15V18.5ZM17 18.5V19H17.5V18.5H17ZM2 13H5V12H2V13ZM11.6655 3.12835L1.66552 12.1284L2.33448 12.8716L12.3345 3.87165L11.6655 3.12835ZM22.3345 12.1284L12.3345 3.12835L11.6655 3.87165L21.6655 12.8716L22.3345 12.1284ZM19 13H22V12H19V13ZM19.5 20.5V12.5H18.5V20.5H19.5ZM13 21H19V20H13V21ZM12.5 14.5V20.5H13.5V14.5H12.5ZM11 15H13V14H11V15ZM11.5 20.5V14.5H10.5V20.5H11.5ZM5 21H11V20H5V21ZM4.5 12.5V20.5H5.5V12.5H4.5ZM11.6655 6.56165L16.6655 11.0616L17.3345 10.3184L12.3345 5.81835L11.6655 6.56165ZM7.33448 11.0616L12.3345 6.56165L11.6655 5.81835L6.66552 10.3184L7.33448 11.0616ZM7.5 18.5V10.69H6.5V18.5H7.5ZM9 18H7V19H9V18ZM8.5 12.5V18.5H9.5V12.5H8.5ZM15 12H9V13H15V12ZM15.5 18.5V12.5H14.5V18.5H15.5ZM17 18H15V19H17V18ZM16.5 10.69V18.5H17.5V10.69H16.5Z" fill="#4982C1"/>
</svg>
