<svg width="18" height="18" viewBox="0 0 18 18" fill="none" xmlns="http://www.w3.org/2000/svg">
<path fill-rule="evenodd" clip-rule="evenodd" d="M6 2H2V6H0V2C0 0.9 0.9 0 2 0H6V2ZM0 12H2V16H6V18H2C0.9 18 0 17.1 0 16V12ZM9 5C6.79 5 5 6.79 5 9C5 11.21 6.79 13 9 13C11.21 13 13 11.21 13 9C13 6.79 11.21 5 9 5ZM7 9C7 10.1 7.9 11 9 11C10.1 11 11 10.1 11 9C11 7.9 10.1 7 9 7C7.9 7 7 7.9 7 9ZM16 0H12V2H16V6H18V2C18 0.9 17.1 0 16 0ZM12 16H16V12H18V16C18 17.1 17.1 18 16 18H12V16Z" fill="black" fill-opacity="0.54"/>
</svg>
